<?xml version="1.0" encoding="UTF-8"?>
<svg id="Layer_1" xmlns="http://www.w3.org/2000/svg" version="1.1" viewBox="0 0 1000 1000">
  <!-- Generator: Adobe Illustrator 29.5.0, SVG Export Plug-In . SVG Version: 2.1.0 Build 137)  -->
  <defs>
    <style>
      .st0 {
        fill: #6d6e71;
      }

      .st1 {
        fill: #231f20;
      }
    </style>
  </defs>
  <rect class="st0" x="0" y="0" width="1000" height="1000"/>
  <path class="st1" d="M42.75,934.96v-172.7c0-12.6-10.33-22.81-23.08-22.81H0v260.55h263.65v-19.43c0-12.6-10.34-22.82-23.09-22.82H65.82c-12.74,0-23.06-10.2-23.06-22.79Z"/>
  <path class="st1" d="M934.96,957.75h-172.7c-12.6,0-22.81,10.21-22.81,22.81v19.44h260.55v-260.55h-19.43c-12.6,0-22.82,10.22-22.82,22.82v172.69c0,12.59-10.2,22.79-22.79,22.79Z"/>
  <path class="st1" d="M65.82,42.38h174.75c12.75,0,23.08-10.24,23.08-22.88V0H42.75S0,0,0,0v42.38s0,218.98,0,218.98h19.66c12.75,0,23.09-10.25,23.09-22.89V65.25c0-12.63,10.33-22.86,23.06-22.86Z"/>
  <path class="st1" d="M957.62,65.25v173.24c0,12.63,10.24,22.88,22.88,22.88h19.5V42.38s0-42.38,0-42.38h-42.38s-218.98,0-218.98,0v19.49c0,12.64,10.25,22.89,22.89,22.89h173.22c12.63,0,22.86,10.24,22.86,22.86Z"/>
</svg>